<mxfile host="app.diagrams.net" modified="2024-05-17T00:03:54.143Z" agent="Mozilla/5.0 (Windows NT 10.0; Win64; x64) AppleWebKit/537.36 (KHTML, like Gecko) Chrome/124.0.0.0 Safari/537.36" version="24.4.3" etag="HeltdI3WwOMAyZzEKaJp" type="github">
  <diagram name="PÃ¡gina-1" id="W2Z9QRc8laOMJ8NJG8Jn">
    <mxGraphModel>
      <root>
        <mxCell id="0" />
        <mxCell id="1" parent="0" />
      </root>
    </mxGraphModel>
  </diagram>
</mxfile>
